<?xml version="1.0" encoding="UTF-8"?>
<svg width="174px" height="48px" viewBox="0 0 174 48" version="1.1" xmlns="http://www.w3.org/2000/svg" xmlns:xlink="http://www.w3.org/1999/xlink">
    <title>画板</title>
    <defs>
        <linearGradient x1="50%" y1="1.54379321%" x2="50%" y2="97.9143787%" id="linearGradient-1">
            <stop stop-color="#031937" offset="0%"></stop>
            <stop stop-color="#1292BD" offset="100%"></stop>
        </linearGradient>
        <linearGradient x1="50%" y1="-3.42174206e-14%" x2="50%" y2="100%" id="linearGradient-2">
            <stop stop-color="#46A8EC" offset="0%"></stop>
            <stop stop-color="#ADF6F8" offset="100%"></stop>
        </linearGradient>
        <path d="M12.727338,7.93043478 C13.5180434,8.32921354 14.1409076,9.41617007 14.5959307,11.1913043 C14.9920763,12.736746 15.3173528,14.4291541 15.5717603,16.2685289 L15.5723097,16.2684532 C15.6487121,16.823109 15.5844178,17.3880723 15.3853406,17.9113778 C14.3497111,20.626866 12.9670798,22.8667377 11.2376906,24.6310857 C9.50644685,26.3973257 7.235851,28.1707861 4.42590307,29.9514668 C3.89260003,30.2898455 3.27404176,30.4692665 2.64244729,30.4695652 L0,30.4695652 L0,30.4695652 L0,0 L4.36881722,0 C4.61706166,6.20532052e-16 4.85520818,0.0982885287 5.03118985,0.273376364 L12.727338,7.93043478 L12.727338,7.93043478 Z" id="path-3"></path>
        <path d="M17.497553,1.67485133 C13.1244362,-1.42080085 9.23480144,-0.225148672 5.8286487,5.26180785 C5.20720226,6.26289321 1.33657567,7.24746445 0.863157508,8.09224263 C-0.84744021,11.1446723 -0.01550265,13.4664114 3.35897019,15.05746 L17.497553,1.67485133 Z" id="path-5"></path>
        <path d="M0,0 C0,0 0.64304627,0.0401780313 1.6072511,0.717466899 C2.66568475,1.46094516 5.06865182,4.34475112 5.67111363,8.8174669 C5.94987805,10.8870321 4.05950684,12.2218147 0,12.8218147 C0,4.27393824 0,0 0,0 Z" id="path-7"></path>
        <path d="M0,2.11304348 C0.583663,3.26086957 1.0976349,3.86956522 1.54191569,3.93913043 C1.98619648,4.00869565 3.18836803,3.53043478 5.14843035,2.50434783 L6.40287023,0.834782609 C6.21207106,0.684964456 6.07268885,0.563225325 5.9847236,0.469565217 C5.89675835,0.37590511 5.77479892,0.219383371 5.6188453,0 C4.23361521,0.390257234 3.22744989,0.703300712 2.60034934,0.939130435 C1.97324879,1.17496016 1.10646567,1.56626451 0,2.11304348 Z" id="path-9"></path>
        <path d="M0,0.234782609 C0.174227761,1.49565217 0.470414955,2.29565217 0.888561582,2.63478261 C1.28721184,2.95810086 1.88381155,2.72421003 2.6783607,1.93311011 C2.75134478,1.86262609 2.77485605,1.75578473 2.73928917,1.66077615 L2.24511549,0.342198037 C2.16969159,0.140948338 1.96726275,0.0165927015 1.75365348,0.0402841918 L0,0.234782609 L0,0.234782609 Z" id="path-11"></path>
        <path d="M12.727338,7.93043478 C13.5180434,8.32921354 14.1409076,9.41617007 14.5959307,11.1913043 C14.9920763,12.736746 15.3173528,14.4291541 15.5717603,16.2685289 L15.5723097,16.2684532 C15.6487121,16.823109 15.5844178,17.3880723 15.3853406,17.9113778 C14.3497111,20.626866 12.9670798,22.8667377 11.2376906,24.6310857 C9.50644685,26.3973257 7.235851,28.1707861 4.42590307,29.9514668 C3.89260003,30.2898455 3.27404176,30.4692665 2.64244729,30.4695652 L0,30.4695652 L0,30.4695652 L0,0 L4.36881722,0 C4.61706166,-6.00713275e-16 4.85520818,0.0982885287 5.03118985,0.273376364 L12.727338,7.93043478 L12.727338,7.93043478 Z" id="path-13"></path>
        <path d="M17.497553,1.67485133 C13.1244362,-1.42080085 9.23480144,-0.225148672 5.8286487,5.26180785 C5.20720226,6.26289321 1.33657567,7.24746445 0.863157508,8.09224263 C-0.84744021,11.1446723 -0.01550265,13.4664114 3.35897019,15.05746 L17.497553,1.67485133 Z" id="path-15"></path>
        <path d="M0,0 C0,0 0.64304627,0.0401780313 1.6072511,0.717466899 C2.66568475,1.46094516 5.06865182,4.34475112 5.67111363,8.8174669 C5.94987805,10.8870321 4.05950684,12.2218147 0,12.8218147 C0,4.27393824 0,0 0,0 Z" id="path-17"></path>
        <path d="M0,2.11304348 C0.583663,3.26086957 1.0976349,3.86956522 1.54191569,3.93913043 C1.98619648,4.00869565 3.18836803,3.53043478 5.14843035,2.50434783 L6.40287023,0.834782609 C6.21207106,0.684964456 6.07268885,0.563225325 5.9847236,0.469565217 C5.89675835,0.37590511 5.77479892,0.219383371 5.6188453,0 C4.23361521,0.390257234 3.22744989,0.703300712 2.60034934,0.939130435 C1.97324879,1.17496016 1.10646567,1.56626451 0,2.11304348 Z" id="path-19"></path>
        <path d="M0,0.234782609 C0.174227761,1.49565217 0.470414955,2.29565217 0.888561582,2.63478261 C1.28721184,2.95810086 1.88381155,2.72421003 2.6783607,1.93311011 C2.75134478,1.86262609 2.77485605,1.75578473 2.73928917,1.66077615 L2.24511549,0.342198037 C2.16969159,0.140948338 1.96726275,0.0165927015 1.75365348,0.0402841918 L0,0.234782609 L0,0.234782609 Z" id="path-21"></path>
        <linearGradient x1="49.2482291%" y1="6.72205347e-16%" x2="41.8261377%" y2="63.685991%" id="linearGradient-23">
            <stop stop-color="#36AED1" offset="0%"></stop>
            <stop stop-color="#2D648E" offset="100%"></stop>
        </linearGradient>
        <path d="M12.727338,7.93043478 C13.5180434,8.32921354 14.1409076,9.41617007 14.5959307,11.1913043 C14.9920763,12.736746 15.3173528,14.4291541 15.5717603,16.2685289 L15.5723097,16.2684532 C15.6487121,16.823109 15.5844178,17.3880723 15.3853406,17.9113778 C14.3497111,20.626866 12.9670798,22.8667377 11.2376906,24.6310857 C9.50644685,26.3973257 7.235851,28.1707861 4.42590307,29.9514668 C3.89260003,30.2898455 3.27404176,30.4692665 2.64244729,30.4695652 L0,30.4695652 L0,30.4695652 L0,0 L4.36881722,0 C4.61706166,1.17564356e-15 4.85520818,0.0982885287 5.03118985,0.273376364 L12.727338,7.93043478 L12.727338,7.93043478 Z" id="path-24"></path>
        <linearGradient x1="50%" y1="0%" x2="46.9013794%" y2="76.8904055%" id="linearGradient-26">
            <stop stop-color="#57D2F6" offset="0%"></stop>
            <stop stop-color="#429ADC" offset="100%"></stop>
        </linearGradient>
        <path d="M1.80325733,10.1478261 C1.97481502,8.60526838 2.18824403,7.43570316 2.44354435,6.63913043 C2.69884468,5.84255771 3.17797102,4.85125336 3.88092338,3.66521739 C6.28422901,3.15895116 8.05264078,2.70677725 9.18615871,2.30869565 C10.3196766,1.91061405 11.696076,1.14104884 13.3153567,0 L15.6804985,0.926086957 L16.4514564,10.1478261 L8.19306047,22.8913043 L0,22.8913043 L1.80325733,10.1478261 Z" id="path-27"></path>
        <path d="M17.497553,1.67485133 C13.1244362,-1.42080085 9.23480144,-0.225148672 5.8286487,5.26180785 C5.20720226,6.26289321 1.33657567,7.24746445 0.863157508,8.09224263 C-0.84744021,11.1446723 -0.01550265,13.4664114 3.35897019,15.05746 L17.497553,1.67485133 Z" id="path-29"></path>
        <path d="M0,0 C0,0 0.64304627,0.0401780313 1.6072511,0.717466899 C2.66568475,1.46094516 5.06865182,4.34475112 5.67111363,8.8174669 C5.94987805,10.8870321 4.05950684,12.2218147 0,12.8218147 C0,4.27393824 0,0 0,0 Z" id="path-31"></path>
        <linearGradient x1="53.6789094%" y1="-3.46944695e-15%" x2="50%" y2="100%" id="linearGradient-33">
            <stop stop-color="#18586B" offset="0%"></stop>
            <stop stop-color="#1D7191" offset="100%"></stop>
        </linearGradient>
        <linearGradient x1="50%" y1="0%" x2="50%" y2="100%" id="linearGradient-34">
            <stop stop-color="#1D8CC0" offset="0%"></stop>
            <stop stop-color="#1D4C80" offset="100%"></stop>
        </linearGradient>
        <path d="M5.59271114,0 C4.19989086,1.8156722 3.17194707,3.12002003 2.50887976,3.91304348 C1.84581245,4.70606693 1.0095192,5.7669365 0,7.09565217 C0.397539412,7.62089507 0.71986077,8.02089507 0.966964075,8.29565217 C1.21406738,8.57040928 1.57994568,8.93562667 2.06459897,9.39130435 C2.47758207,9.29597462 2.78248065,9.21771375 2.97929472,9.15652174 C3.17610878,9.09532973 3.40260487,9.00837321 3.65878299,8.89565217 C3.90031885,9.19776997 4.09196939,9.41516128 4.2337346,9.54782609 C4.37549981,9.6804909 4.75880088,9.94570829 5.38363782,10.3434783 C5.89760972,8.75217391 6.19815261,7.25217391 6.28526649,5.84347826 C6.37238037,4.43478261 6.14152858,2.48695652 5.59271114,0 Z" id="path-35"></path>
        <linearGradient x1="100%" y1="12.8194869%" x2="16.2927154%" y2="87.1805131%" id="linearGradient-37">
            <stop stop-color="#3095B4" offset="0%"></stop>
            <stop stop-color="#113D67" offset="100%"></stop>
        </linearGradient>
        <path d="M0,2.11304348 C0.583663,3.26086957 1.0976349,3.86956522 1.54191569,3.93913043 C1.98619648,4.00869565 3.18836803,3.53043478 5.14843035,2.50434783 L6.40287023,0.834782609 C6.21207106,0.684964456 6.07268885,0.563225325 5.9847236,0.469565217 C5.89675835,0.37590511 5.77479892,0.219383371 5.6188453,0 C4.23361521,0.390257234 3.22744989,0.703300712 2.60034934,0.939130435 C1.97324879,1.17496016 1.10646567,1.56626451 0,2.11304348 Z" id="path-38"></path>
        <path d="M0,0.234782609 C0.174227761,1.49565217 0.470414955,2.29565217 0.888561582,2.63478261 C1.28721184,2.95810086 1.88381155,2.72421003 2.6783607,1.93311011 C2.75134478,1.86262609 2.77485605,1.75578473 2.73928917,1.66077615 L2.24511549,0.342198037 C2.16969159,0.140948338 1.96726275,0.0165927015 1.75365348,0.0402841918 L0,0.234782609 L0,0.234782609 Z" id="path-40"></path>
        <circle id="path-42" cx="3.20143511" cy="1.39565217" r="1"></circle>
        <filter x="-600.0%" y="-600.0%" width="1300.0%" height="1300.0%" filterUnits="objectBoundingBox" id="filter-43">
            <feOffset dx="0" dy="0" in="SourceAlpha" result="shadowOffsetOuter1"></feOffset>
            <feGaussianBlur stdDeviation="2" in="shadowOffsetOuter1" result="shadowBlurOuter1"></feGaussianBlur>
            <feColorMatrix values="0 0 0 0 0.545098039   0 0 0 0 0.949019608   0 0 0 0 1  0 0 0 1 0" type="matrix" in="shadowBlurOuter1" result="shadowMatrixOuter1"></feColorMatrix>
            <feOffset dx="0" dy="0" in="SourceAlpha" result="shadowOffsetOuter2"></feOffset>
            <feGaussianBlur stdDeviation="0.5" in="shadowOffsetOuter2" result="shadowBlurOuter2"></feGaussianBlur>
            <feColorMatrix values="0 0 0 0 0.545098039   0 0 0 0 0.949019608   0 0 0 0 1  0 0 0 1 0" type="matrix" in="shadowBlurOuter2" result="shadowMatrixOuter2"></feColorMatrix>
            <feMerge>
                <feMergeNode in="shadowMatrixOuter1"></feMergeNode>
                <feMergeNode in="shadowMatrixOuter2"></feMergeNode>
            </feMerge>
        </filter>
    </defs>
    <g id="画板" stroke="none" stroke-width="1" fill="none" fill-rule="evenodd">
        <g id="编组-6">
            <g id="编组-5">
                <path d="M21.6727363,2.81148224 C23.1400822,1.96584 24.9467799,1.96584 26.4141258,2.81148224 L41.2363479,11.353638 C41.9717458,11.7774533 42.5660286,12.3814613 42.976462,13.0917108 C43.3868954,13.8019603 43.6134792,14.6184513 43.6134792,15.4672324 L43.6134792,32.5327676 C43.6134792,33.3815487 43.3868954,34.1980397 42.976462,34.9082892 C42.5660286,35.6185387 41.9717458,36.2225467 41.2363479,36.646362 L26.4141258,45.1885178 C24.9467799,46.03416 23.1400822,46.03416 21.6727363,45.1885178 L6.85051421,36.646362 C6.11511629,36.2225467 5.52083346,35.6185387 5.11040011,34.9082892 C4.69996675,34.1980397 4.47338288,33.3815487 4.47338288,32.5327676 L4.47338288,15.4672324 C4.47338288,14.6184513 4.69996675,13.8019603 5.11040011,13.0917108 C5.52083346,12.3814613 6.11511629,11.7774533 6.85051421,11.353638 Z" id="多边形" stroke="url(#linearGradient-2)" stroke-width="2.50434783" fill="url(#linearGradient-1)"></path>
                <g id="编组-4" transform="translate(24.043431, 3.391304)">
                    <g id="路径-7" transform="translate(0.000000, 7.200000)">
                        <mask id="mask-4" fill="white">
                            <use xlink:href="#path-3"></use>
                        </mask>
                        <use id="蒙版" fill="#CB6E1A" xlink:href="#path-3"></use>
                        <rect id="矩形" fill="#EE7C46" mask="url(#mask-4)" x="0" y="0" width="1" height="15.8608696"></rect>
                        <path d="M1.80325733,17.7782609 C1.97481502,16.2357032 2.18824403,15.0661379 2.44354435,14.2695652 C2.69884468,13.4729925 3.17797102,12.4816881 3.88092338,11.2956522 C6.28422901,10.7893859 8.05264078,10.337212 9.18615871,9.93913043 C10.3196766,9.54104884 11.696076,8.77148362 13.3153567,7.63043478 L15.6804985,8.55652174 L16.4514564,17.7782609 L8.19306047,30.5217391 L0,30.5217391 L1.80325733,17.7782609 Z" fill="#FEA355" mask="url(#mask-4)"></path>
                        <g id="路径-10" mask="url(#mask-4)">
                            <g transform="translate(-0.863158, 18.203410)">
                                <mask id="mask-6" fill="white">
                                    <use xlink:href="#path-5"></use>
                                </mask>
                                <use id="蒙版" stroke="none" fill="#FFFFFF" fill-rule="evenodd" xlink:href="#path-5"></use>
                                <path d="M8.12845515,-3.0468878 C8.11974376,2.54441655 9.97526942,7.10528611 13.6950321,10.6357209 C17.4147948,14.1661557 13.1375033,15.2487644 0.863157508,13.883547 L0.863157508,-2.85123563 L8.12845515,-3.0468878 Z" id="路径-10" stroke="none" fill="#C8F4FD" fill-rule="evenodd" mask="url(#mask-6)"></path>
                            </g>
                        </g>
                    </g>
                    <g id="路径-6-+-路径-8-+-路径-9蒙版" transform="translate(0.000000, 22.565142)">
                        <path d="M4.48200916,7.34355386 C4.6736597,7.44790168 5.68418071,8.16964081 7.5135722,9.50877125 C5.95423374,11.9348582 4.56476734,13.2305104 3.34517302,13.3957278 C2.12557869,13.5609452 1.01052102,13.365293 0,12.8087712 L0,7.34355386 C2.79635557,7.23920603 4.29035862,7.23920603 4.48200916,7.34355386 Z" id="路径-11" fill="#87BFD9"></path>
                        <mask id="mask-8" fill="white">
                            <use xlink:href="#path-7"></use>
                        </mask>
                        <use id="蒙版" fill="#FFFFFF" xlink:href="#path-7"></use>
                        <rect id="矩形" fill="#CBD3DF" mask="url(#mask-8)" x="0" y="3.75652174" width="1" height="2.8173913"></rect>
                        <path d="M0,-0.430359188 L0,3.07833646 C0.461703567,3.08703212 0.945185605,2.98268429 1.45044611,2.76529299 C1.95570662,2.54790168 2.46532282,1.97833646 2.97929472,1.05659733 L0,-0.430359188 Z" id="路径-6" fill="#D5FBFE" mask="url(#mask-8)"></path>
                        <path d="M0,9.31311907 C0,9.31311907 1.64209665,10.3087712 4.92628995,12.3000756 L0,13.6957278 C0,10.7739886 0,9.31311907 0,9.31311907 Z" id="路径-8" fill="#B0E9FE" mask="url(#mask-8)"></path>
                        <polygon id="路径-9" fill="#2E6889" mask="url(#mask-8)" points="0 11.7261626 3.97239296 12.9522495 0 13.2261626"></polygon>
                        <g id="编组-2" mask="url(#mask-8)">
                            <g transform="translate(0.000000, 6.404423)">
                                <path d="M0,0 C0.13345268,0 1.02093798,0.220447447 2.66245591,0.661342341 C3.13575095,0.787625366 3.41679714,1.27383124 3.2902585,1.74705793 C3.28384,1.77106168 3.27641569,1.79478512 3.26807213,1.81818954 L2.95914697,2.67757334 C2.85466364,2.96823039 2.6421309,3.20740782 2.36577287,3.34533724 L0,4.52608696 L0,4.52608696 C0,2.25652174 0,0.747826087 0,0 Z" id="路径-4" fill="#08273B"></path>
                                <path d="M5.57083216e-16,0.873913043 C0.0696911045,0.873913043 0.884205888,1.07826087 2.44354435,1.48695652 L5.57083216e-16,2.90869565 C5.57083216e-16,2.09130435 5.57083216e-16,1.41304348 5.57083216e-16,0.873913043 Z" id="路径-5" fill="#224A66"></path>
                                <ellipse id="椭圆形" fill="#03121F" cx="1.56804985" cy="2.96086957" rx="1" ry="1"></ellipse>
                            </g>
                        </g>
                    </g>
                    <g id="编组">
                        <path d="M0,7.2 L4.41923885,7.2 C4.61312783,7.2 4.80226437,7.26001135 4.96068504,7.37179609 L5.4751074,7.73478261 L5.4751074,7.73478261" id="路径-12" stroke="#FFFFFF" stroke-width="0.6"></path>
                        <path d="M3.90423763,8.92045006 C3.66919818,8.6592534 4.63282534,7.65067391 5.07943486,7.03983409 C7.97615374,3.07791398 10.0973909,0.759886463 11.1382295,0.0658832062 C12.3297175,-0.728569025 13.6714324,5.83832945 14.0370493,10.252553 C14.2353149,12.6462847 13.1043023,14.5132902 12.7312746,15.0585716 C12.3917732,15.5548453 9.38849138,13.3607933 8.10883217,12.1592887 C7.50327274,11.5907135 6.53378502,11.039894 5.70620672,10.4353907 C4.78495883,9.76246659 4.02805187,9.05804342 3.90423763,8.92045006 Z" id="路径" fill="#A54C00"></path>
                        <path d="M11.1592881,1.72173913 C9.76646784,3.53741133 8.73852404,4.84175916 8.07545673,5.63478261 C7.41238942,6.42780606 6.57609617,7.48867563 5.56657697,8.8173913 C5.96411638,9.3426342 6.28643774,9.7426342 6.53354105,10.0173913 C6.78064435,10.2921484 7.14652265,10.6573658 7.63117594,11.1130435 C8.04415904,11.0177137 8.34905763,10.9394529 8.54587169,10.8782609 C8.74268575,10.8170689 8.96918184,10.7301123 9.22535996,10.6173913 C9.46689582,10.9195091 9.65854636,11.1369004 9.80031157,11.2695652 C9.94207678,11.40223 10.3253779,11.6674474 10.9502148,12.0652174 C11.4641867,10.473913 11.7647296,8.97391304 11.8518435,7.56521739 C11.9389573,6.15652174 11.7081056,4.20869565 11.1592881,1.72173913 Z" id="路径-2" fill="#803100"></path>
                        <path d="M3.88165958,8.72121832 C3.99012636,8.31897727 4.71085219,7.5439545 5.07943486,7.03983409 C7.97615374,3.07791398 10.0973909,0.759886463 11.1382295,0.0658832062 C12.3297175,-0.728569025 13.6714324,5.83832945 14.0370493,10.252553 C14.2353149,12.6462847 13.1043023,14.5132902 12.7312746,15.0585716 L12.6881367,15.1173913" id="路径" stroke="#FFFFFF" stroke-width="0.6"></path>
                    </g>
                    <g id="编组-3" transform="translate(3.358240, 20.804348)">
                        <mask id="mask-10" fill="white">
                            <use xlink:href="#path-9"></use>
                        </mask>
                        <use id="路径-3" fill="#050F1A" xlink:href="#path-9"></use>
                        <g id="蒙版-+-路径-14蒙版" mask="url(#mask-10)">
                            <g transform="translate(2.312874, 0.456522)">
                                <mask id="mask-12" fill="white">
                                    <use xlink:href="#path-11"></use>
                                </mask>
                                <use id="蒙版" stroke="none" fill="#092338" fill-rule="evenodd" xlink:href="#path-11"></use>
                                <path d="M1.84245858,-0.456521739 L1.55645678,1.38327163 C1.51329106,1.66094817 1.56894492,1.94496734 1.71371645,2.18581738 L2.31287353,3.1826087 L2.31287353,3.1826087 L3.67185007,2.03478261 L1.84245858,-0.456521739 Z" id="蒙版" stroke="none" fill="#113147" fill-rule="evenodd" mask="url(#mask-12)"></path>
                                <path d="M1.39817778,-0.560869565 C1.39817778,-0.493138587 1.42708098,0.258772833 1.48488736,1.6948647 L1.4849972,1.69485799 C1.48851137,1.75238045 1.53799134,1.79616283 1.59551381,1.79264866 C1.60026901,1.79235816 1.60499874,1.79174234 1.6096698,1.79080553 C1.85514054,1.74421743 2.05468339,1.69504431 2.20833687,1.64347826 C2.38632462,1.58374565 2.65202196,1.47070217 3.00542888,1.30434783 L2.20833687,-0.67826087 C1.66823081,-0.669565217 1.39817778,-0.630434783 1.39817778,-0.560869565 Z" id="路径-14" stroke="none" fill="#365E77" fill-rule="evenodd" mask="url(#mask-12)"></path>
                            </g>
                        </g>
                        <circle id="椭圆形" fill="#FFFFFF" mask="url(#mask-10)" transform="translate(3.201435, 1.395652) rotate(30.000000) translate(-3.201435, -1.395652) " cx="3.20143511" cy="1.39565217" r="1"></circle>
                    </g>
                </g>
                <g id="编组-4" transform="translate(16.203182, 22.226087) scale(-1, 1) translate(-16.203182, -22.226087) translate(8.362933, 3.391304)">
                    <g id="路径-7" transform="translate(0.000000, 7.200000)">
                        <mask id="mask-14" fill="white">
                            <use xlink:href="#path-13"></use>
                        </mask>
                        <use id="蒙版" fill="#CB6E1A" xlink:href="#path-13"></use>
                        <path d="M1.80325733,17.7782609 C1.97481502,16.2357032 2.18824403,15.0661379 2.44354435,14.2695652 C2.69884468,13.4729925 3.17797102,12.4816881 3.88092338,11.2956522 C6.28422901,10.7893859 8.05264078,10.337212 9.18615871,9.93913043 C10.3196766,9.54104884 11.696076,8.77148362 13.3153567,7.63043478 L15.6804985,8.55652174 L16.4514564,17.7782609 L8.19306047,30.5217391 L0,30.5217391 L1.80325733,17.7782609 Z" fill="#FEA355" mask="url(#mask-14)"></path>
                        <g id="路径-10" mask="url(#mask-14)">
                            <g transform="translate(-0.863158, 18.203410)">
                                <mask id="mask-16" fill="white">
                                    <use xlink:href="#path-15"></use>
                                </mask>
                                <use id="蒙版" stroke="none" fill="#FFFFFF" fill-rule="evenodd" xlink:href="#path-15"></use>
                                <path d="M8.12845515,-3.0468878 C8.11974376,2.54441655 9.97526942,7.10528611 13.6950321,10.6357209 C17.4147948,14.1661557 13.1375033,15.2487644 0.863157508,13.883547 L0.863157508,-2.85123563 L8.12845515,-3.0468878 Z" id="路径-10" stroke="none" fill="#C8F4FD" fill-rule="evenodd" mask="url(#mask-16)"></path>
                            </g>
                        </g>
                    </g>
                    <g id="路径-6-+-路径-8-+-路径-9蒙版" transform="translate(0.000000, 22.565142)">
                        <path d="M4.48200916,7.34355386 C4.6736597,7.44790168 5.68418071,8.16964081 7.5135722,9.50877125 C5.95423374,11.9348582 4.56476734,13.2305104 3.34517302,13.3957278 C2.12557869,13.5609452 1.01052102,13.365293 0,12.8087712 L0,7.34355386 C2.79635557,7.23920603 4.29035862,7.23920603 4.48200916,7.34355386 Z" id="路径-11" fill="#87BFD9"></path>
                        <mask id="mask-18" fill="white">
                            <use xlink:href="#path-17"></use>
                        </mask>
                        <use id="蒙版" fill="#FFFFFF" xlink:href="#path-17"></use>
                        <path d="M0,-0.430359188 L0,3.07833646 C0.461703567,3.08703212 0.945185605,2.98268429 1.45044611,2.76529299 C1.95570662,2.54790168 2.46532282,1.97833646 2.97929472,1.05659733 L0,-0.430359188 Z" id="路径-6" fill="#D5FBFE" mask="url(#mask-18)"></path>
                        <path d="M0,9.31311907 C0,9.31311907 1.64209665,10.3087712 4.92628995,12.3000756 L0,13.6957278 C0,10.7739886 0,9.31311907 0,9.31311907 Z" id="路径-8" fill="#B0E9FE" mask="url(#mask-18)"></path>
                        <polygon id="路径-9" fill="#2E6889" mask="url(#mask-18)" points="0 11.7261626 3.97239296 12.9522495 0 13.2261626"></polygon>
                        <g id="编组-2" mask="url(#mask-18)">
                            <g transform="translate(0.000000, 6.404423)">
                                <path d="M0,0 C0.13345268,0 1.02093798,0.220447447 2.66245591,0.661342341 C3.13575095,0.787625366 3.41679714,1.27383124 3.2902585,1.74705793 C3.28384,1.77106168 3.27641569,1.79478512 3.26807213,1.81818954 L2.95914697,2.67757334 C2.85466364,2.96823039 2.6421309,3.20740782 2.36577287,3.34533724 L0,4.52608696 L0,4.52608696 C0,2.25652174 0,0.747826087 0,0 Z" id="路径-4" fill="#08273B"></path>
                                <path d="M0,0.873913043 C0.0696911045,0.873913043 0.884205888,1.07826087 2.44354435,1.48695652 L0,2.90869565 C0,2.09130435 0,1.41304348 0,0.873913043 Z" id="路径-5" fill="#224A66"></path>
                                <ellipse id="椭圆形" fill="#03121F" cx="1.56804985" cy="2.96086957" rx="1" ry="1"></ellipse>
                            </g>
                        </g>
                    </g>
                    <g id="编组">
                        <path d="M0,7.2 L4.41923885,7.2 C4.61312783,7.2 4.80226437,7.26001135 4.96068504,7.37179609 L5.4751074,7.73478261 L5.4751074,7.73478261" id="路径-12" stroke="#FFFFFF" stroke-width="0.6"></path>
                        <path d="M3.90423763,8.92045006 C3.66919818,8.6592534 4.63282534,7.65067391 5.07943486,7.03983409 C7.97615374,3.07791398 10.0973909,0.759886463 11.1382295,0.0658832062 C12.3297175,-0.728569025 13.6714324,5.83832945 14.0370493,10.252553 C14.2353149,12.6462847 13.1043023,14.5132902 12.7312746,15.0585716 C12.3917732,15.5548453 9.38849138,13.3607933 8.10883217,12.1592887 C7.50327274,11.5907135 6.53378502,11.039894 5.70620672,10.4353907 C4.78495883,9.76246659 4.02805187,9.05804342 3.90423763,8.92045006 Z" id="路径" fill="#A54C00"></path>
                        <path d="M11.1592881,1.72173913 C9.76646784,3.53741133 8.73852404,4.84175916 8.07545673,5.63478261 C7.41238942,6.42780606 6.57609617,7.48867563 5.56657697,8.8173913 C5.96411638,9.3426342 6.28643774,9.7426342 6.53354105,10.0173913 C6.78064435,10.2921484 7.14652265,10.6573658 7.63117594,11.1130435 C8.04415904,11.0177137 8.34905763,10.9394529 8.54587169,10.8782609 C8.74268575,10.8170689 8.96918184,10.7301123 9.22535996,10.6173913 C9.46689582,10.9195091 9.65854636,11.1369004 9.80031157,11.2695652 C9.94207678,11.40223 10.3253779,11.6674474 10.9502148,12.0652174 C11.4641867,10.473913 11.7647296,8.97391304 11.8518435,7.56521739 C11.9389573,6.15652174 11.7081056,4.20869565 11.1592881,1.72173913 Z" id="路径-2" fill="#803100"></path>
                        <path d="M3.88165958,8.72121832 C3.99012636,8.31897727 4.71085219,7.5439545 5.07943486,7.03983409 C7.97615374,3.07791398 10.0973909,0.759886463 11.1382295,0.0658832062 C12.3297175,-0.728569025 13.6714324,5.83832945 14.0370493,10.252553 C14.2353149,12.6462847 13.1043023,14.5132902 12.7312746,15.0585716 L12.6881367,15.1173913" id="路径" stroke="#FFFFFF" stroke-width="0.6"></path>
                    </g>
                    <g id="编组-3" transform="translate(3.358240, 20.804348)">
                        <mask id="mask-20" fill="white">
                            <use xlink:href="#path-19"></use>
                        </mask>
                        <use id="路径-3" fill="#050F1A" xlink:href="#path-19"></use>
                        <g id="蒙版-+-路径-14蒙版" mask="url(#mask-20)">
                            <g transform="translate(2.312874, 0.456522)">
                                <mask id="mask-22" fill="white">
                                    <use xlink:href="#path-21"></use>
                                </mask>
                                <use id="蒙版" stroke="none" fill="#092338" fill-rule="evenodd" xlink:href="#path-21"></use>
                                <path d="M1.84245858,-0.456521739 L1.55645678,1.38327163 C1.51329106,1.66094817 1.56894492,1.94496734 1.71371645,2.18581738 L2.31287353,3.1826087 L2.31287353,3.1826087 L3.67185007,2.03478261 L1.84245858,-0.456521739 Z" id="蒙版" stroke="none" fill="#113147" fill-rule="evenodd" mask="url(#mask-22)"></path>
                                <path d="M1.39817778,-0.560869565 C1.39817778,-0.493138587 1.42708098,0.258772833 1.48488736,1.6948647 L1.4849972,1.69485799 C1.48851137,1.75238045 1.53799134,1.79616283 1.59551381,1.79264866 C1.60026901,1.79235816 1.60499874,1.79174234 1.6096698,1.79080553 C1.85514054,1.74421743 2.05468339,1.69504431 2.20833687,1.64347826 C2.38632462,1.58374565 2.65202196,1.47070217 3.00542888,1.30434783 L2.20833687,-0.67826087 C1.66823081,-0.669565217 1.39817778,-0.630434783 1.39817778,-0.560869565 Z" id="路径-14" stroke="none" fill="#365E77" fill-rule="evenodd" mask="url(#mask-22)"></path>
                            </g>
                        </g>
                        <circle id="椭圆形" fill="#FFFFFF" mask="url(#mask-20)" transform="translate(3.201435, 1.395652) rotate(30.000000) translate(-3.201435, -1.395652) " cx="3.20143511" cy="1.39565217" r="1"></circle>
                    </g>
                </g>
                <g id="路径-7" transform="translate(24.043431, 10.591304)">
                    <mask id="mask-25" fill="white">
                        <use xlink:href="#path-24"></use>
                    </mask>
                    <use id="蒙版" fill="url(#linearGradient-23)" xlink:href="#path-24"></use>
                    <g id="编组-7" mask="url(#mask-25)">
                        <g transform="translate(0.000000, 7.630435)">
                            <mask id="mask-28" fill="white">
                                <use xlink:href="#path-27"></use>
                            </mask>
                            <use id="蒙版" stroke="none" fill="url(#linearGradient-26)" fill-rule="evenodd" xlink:href="#path-27"></use>
                            <g id="编组-7" stroke="none" stroke-width="1" fill="none" fill-rule="evenodd" mask="url(#mask-28)">
                                <g transform="translate(1.568050, -0.260870)" stroke="#8BF2FF" stroke-width="0.6">
                                    <line x1="9.38216494" y1="0" x2="8.8333475" y2="4.23913043" id="路径-16"></line>
                                    <ellipse id="椭圆形" cx="10.035519" cy="5.77826087" rx="1" ry="1"></ellipse>
                                    <ellipse id="椭圆形" cx="11.8649105" cy="9.1173913" rx="1" ry="1"></ellipse>
                                    <ellipse id="椭圆形" cx="7.57890761" cy="10.5782609" rx="1" ry="1"></ellipse>
                                    <line x1="10.0564264" y1="6.23478261" x2="10.0564264" y2="8.50434783" id="路径-18"></line>
                                    <line x1="11.786508" y1="9.53478261" x2="9.36909786" y2="12.4695652" id="路径-19"></line>
                                    <line x1="10.819544" y1="7.63043478" x2="11.6819714" y2="8.75217391" id="路径-20"></line>
                                    <line x1="1.28057405" y1="11.073913" x2="7.16076099" y2="10.6565217" id="路径-22"></line>
                                    <polyline id="路径-23" points="7.39596847 5.36086957 4.99162536 4.44782609 1.69441611e-17 7.26521739"></polyline>
                                    <line x1="9.10775622" y1="2.79130435" x2="13.537497" y2="3.4173913" id="路径-17"></line>
                                </g>
                            </g>
                        </g>
                    </g>
                    <g id="路径-10" mask="url(#mask-25)">
                        <g transform="translate(-0.863158, 18.203410)">
                            <mask id="mask-30" fill="white">
                                <use xlink:href="#path-29"></use>
                            </mask>
                            <use id="蒙版" stroke="none" fill="#FFFFFF" fill-rule="evenodd" xlink:href="#path-29"></use>
                            <path d="M8.12845515,-3.0468878 C8.11974376,2.54441655 9.97526942,7.10528611 13.6950321,10.6357209 C17.4147948,14.1661557 13.1375033,15.2487644 0.863157508,13.883547 L0.863157508,-2.85123563 L8.12845515,-3.0468878 Z" id="路径-10" stroke="none" fill="#C8F4FD" fill-rule="evenodd" mask="url(#mask-30)"></path>
                        </g>
                    </g>
                </g>
                <g id="路径-6-+-路径-8-+-路径-9蒙版" transform="translate(24.043431, 25.956446)">
                    <path d="M4.48200916,7.34355386 C4.6736597,7.44790168 5.68418071,8.16964081 7.5135722,9.50877125 C5.95423374,11.9348582 4.56476734,13.2305104 3.34517302,13.3957278 C2.12557869,13.5609452 1.01052102,13.365293 0,12.8087712 L0,7.34355386 C2.79635557,7.23920603 4.29035862,7.23920603 4.48200916,7.34355386 Z" id="路径-11" fill="#87BFD9"></path>
                    <mask id="mask-32" fill="white">
                        <use xlink:href="#path-31"></use>
                    </mask>
                    <use id="蒙版" fill="#FFFFFF" xlink:href="#path-31"></use>
                    <path d="M0,-0.430359188 L0,3.07833646 C0.461703567,3.08703212 0.945185605,2.98268429 1.45044611,2.76529299 C1.95570662,2.54790168 2.46532282,1.97833646 2.97929472,1.05659733 L0,-0.430359188 Z" id="路径-6" fill="#D5FBFE" mask="url(#mask-32)"></path>
                    <path d="M0,9.31311907 C0,9.31311907 1.64209665,10.3087712 4.92628995,12.3000756 L0,13.6957278 C0,10.7739886 0,9.31311907 0,9.31311907 Z" id="路径-8" fill="#B0E9FE" mask="url(#mask-32)"></path>
                    <polygon id="路径-9" fill="#2E6889" mask="url(#mask-32)" points="0 11.7261626 3.97239296 12.9522495 0 13.2261626"></polygon>
                    <g id="编组-2" mask="url(#mask-32)">
                        <g transform="translate(0.000000, 6.404423)">
                            <path d="M0,0 C0.13345268,0 1.02093798,0.220447447 2.66245591,0.661342341 C3.13575095,0.787625366 3.41679714,1.27383124 3.2902585,1.74705793 C3.28384,1.77106168 3.27641569,1.79478512 3.26807213,1.81818954 L2.95914697,2.67757334 C2.85466364,2.96823039 2.6421309,3.20740782 2.36577287,3.34533724 L0,4.52608696 L0,4.52608696 C0,2.25652174 0,0.747826087 0,0 Z" id="路径-4" fill="#08273B"></path>
                            <path d="M5.57083216e-16,0.873913043 C0.0696911045,0.873913043 0.884205888,1.07826087 2.44354435,1.48695652 L5.57083216e-16,2.90869565 C5.57083216e-16,2.09130435 5.57083216e-16,1.41304348 5.57083216e-16,0.873913043 Z" id="路径-5" fill="#224A66"></path>
                            <ellipse id="椭圆形" fill="#03121F" cx="1.56804985" cy="2.96086957" rx="1" ry="1"></ellipse>
                        </g>
                    </g>
                </g>
                <g id="编组" transform="translate(24.043431, 3.391304)">
                    <path d="M0,7.2 L4.41923885,7.2 C4.61312783,7.2 4.80226437,7.26001135 4.96068504,7.37179609 L5.4751074,7.73478261 L5.4751074,7.73478261" id="路径-12" stroke="#FFFFFF" stroke-width="0.6"></path>
                    <path d="M3.90423763,8.92045006 C3.66919818,8.6592534 4.63282534,7.65067391 5.07943486,7.03983409 C7.97615374,3.07791398 10.0973909,0.759886463 11.1382295,0.0658832062 C12.3297175,-0.728569025 13.6714324,5.83832945 14.0370493,10.252553 C14.2353149,12.6462847 13.1043023,14.5132902 12.7312746,15.0585716 C12.3917732,15.5548453 9.38849138,13.3607933 8.10883217,12.1592887 C7.50327274,11.5907135 6.53378502,11.039894 5.70620672,10.4353907 C4.78495883,9.76246659 4.02805187,9.05804342 3.90423763,8.92045006 Z" id="路径" fill="url(#linearGradient-33)"></path>
                    <g id="路径-13" transform="translate(5.566577, 1.721739)">
                        <mask id="mask-36" fill="white">
                            <use xlink:href="#path-35"></use>
                        </mask>
                        <use id="蒙版" fill="url(#linearGradient-34)" xlink:href="#path-35"></use>
                        <polygon fill="#113D67" mask="url(#mask-36)" points="0.104536657 7.96956522 3.77638673 7.96956522 6.02392485 9.28695652 5.54044281 10.8913043 0.993098239 8.98695652"></polygon>
                        <path d="M0.797092008,4.86521739 C0.927762829,4.86521739 2.06024328,4.8 4.19453335,4.66956522 L0.993098239,8.72608696 L-0.509616202,6.95217391 C0.230851784,5.56086957 0.666421187,4.86521739 0.797092008,4.86521739 Z" id="路径-15" fill="url(#linearGradient-37)" mask="url(#mask-36)"></path>
                    </g>
                    <path d="M3.88165958,8.72121832 C3.99012636,8.31897727 4.71085219,7.5439545 5.07943486,7.03983409 C7.97615374,3.07791398 10.0973909,0.759886463 11.1382295,0.0658832062 C12.3297175,-0.728569025 13.6714324,5.83832945 14.0370493,10.252553 C14.2353149,12.6462847 13.1043023,14.5132902 12.7312746,15.0585716 L12.6881367,15.1173913" id="路径" stroke="#FFFFFF" stroke-width="0.6"></path>
                </g>
                <g id="编组-3" transform="translate(27.401671, 24.195652)">
                    <mask id="mask-39" fill="white">
                        <use xlink:href="#path-38"></use>
                    </mask>
                    <use id="路径-3" fill="#050F1A" xlink:href="#path-38"></use>
                    <g id="蒙版-+-路径-14蒙版" mask="url(#mask-39)">
                        <g transform="translate(2.312874, 0.456522)">
                            <mask id="mask-41" fill="white">
                                <use xlink:href="#path-40"></use>
                            </mask>
                            <use id="蒙版" stroke="none" fill="#092338" fill-rule="evenodd" xlink:href="#path-40"></use>
                            <path d="M1.84245858,-0.456521739 L1.55645678,1.38327163 C1.51329106,1.66094817 1.56894492,1.94496734 1.71371645,2.18581738 L2.31287353,3.1826087 L2.31287353,3.1826087 L3.67185007,2.03478261 L1.84245858,-0.456521739 Z" id="蒙版" stroke="none" fill="#113147" fill-rule="evenodd" mask="url(#mask-41)"></path>
                            <path d="M1.39817778,-0.560869565 C1.39817778,-0.493138587 1.42708098,0.258772833 1.48488736,1.6948647 L1.4849972,1.69485799 C1.48851137,1.75238045 1.53799134,1.79616283 1.59551381,1.79264866 C1.60026901,1.79235816 1.60499874,1.79174234 1.6096698,1.79080553 C1.85514054,1.74421743 2.05468339,1.69504431 2.20833687,1.64347826 C2.38632462,1.58374565 2.65202196,1.47070217 3.00542888,1.30434783 L2.20833687,-0.67826087 C1.66823081,-0.669565217 1.39817778,-0.630434783 1.39817778,-0.560869565 Z" id="路径-14" stroke="none" fill="#365E77" fill-rule="evenodd" mask="url(#mask-41)"></path>
                        </g>
                    </g>
                    <g id="椭圆形" mask="url(#mask-39)" transform="translate(3.201435, 1.395652) rotate(30.000000) translate(-3.201435, -1.395652) ">
                        <use fill="black" fill-opacity="1" filter="url(#filter-43)" xlink:href="#path-42"></use>
                        <use fill="#8BF2FF" fill-rule="evenodd" xlink:href="#path-42"></use>
                    </g>
                </g>
            </g>
            <path d="M70.2439889,27.5352697 L63.8732749,27.5352697 L62.8004001,29.6929461 L59.3572204,29.6929461 L65.3370421,18.2904564 L68.7802218,18.2904564 L74.7600434,29.6929461 L71.3168638,29.6929461 L70.2439889,27.5352697 Z M64.9794172,25.3112033 L69.1544804,25.3112033 L67.0752656,21.1120332 L64.9794172,25.3112033 Z M79.7168914,29.6929461 L76.6313367,29.6929461 L76.6313367,18.2904564 L84.3660157,18.2904564 C85.1977016,18.2904564 85.9032485,18.3762102 86.4826563,18.5477178 C87.0620642,18.7192254 87.5333528,18.9626556 87.8965223,19.2780083 C88.2596919,19.593361 88.5230591,19.9737206 88.686624,20.4190871 C88.8501889,20.8644537 88.9319713,21.3609959 88.9319713,21.9087137 C88.9319713,22.3900415 88.8640503,22.8105118 88.7282083,23.1701245 C88.5923662,23.5297372 88.4093953,23.8381743 88.1792956,24.0954357 C87.9491958,24.3526971 87.6816702,24.5698479 87.3767187,24.746888 C87.0717672,24.9239281 86.7501819,25.0705394 86.411963,25.186722 L90.1545496,29.6929461 L86.5450327,29.6929461 L83.0852194,25.4937759 L79.7168914,25.4937759 L79.7168914,29.6929461 Z M85.8131492,21.8921162 C85.8131492,21.670816 85.7840401,21.4827109 85.7258221,21.3278008 C85.6676041,21.1728907 85.5664157,21.0470263 85.4222568,20.9502075 C85.2780979,20.8533887 85.085424,20.7828492 84.8442351,20.7385892 C84.6030462,20.6943292 84.3022531,20.6721992 83.9418559,20.6721992 L79.7168914,20.6721992 L79.7168914,23.1120332 L83.9418559,23.1120332 C84.3022531,23.1120332 84.6030462,23.0899032 84.8442351,23.0456432 C85.085424,23.0013831 85.2780979,22.9308437 85.4222568,22.8340249 C85.5664157,22.7372061 85.6676041,22.6113416 85.7258221,22.4564315 C85.7840401,22.3015214 85.8131492,22.1134163 85.8131492,21.8921162 Z M105.399352,26.5477178 C105.399352,26.9903181 105.341134,27.3748271 105.224698,27.7012448 C105.108262,28.0276625 104.946083,28.3084371 104.738162,28.5435685 C104.530241,28.7786999 104.280735,28.9695712 103.989645,29.1161826 C103.698555,29.2627939 103.376969,29.3789765 103.024889,29.4647303 C102.672809,29.5504841 102.297164,29.6099585 101.897955,29.6431535 C101.498745,29.6763485 101.085675,29.6929461 100.658743,29.6929461 L92.3668341,29.6929461 L92.3668341,18.2904564 L100.509039,18.2904564 C100.836169,18.2904564 101.164685,18.3042877 101.494587,18.3319502 C101.824489,18.3596127 102.139144,18.4107884 102.43855,18.4854772 C102.737957,18.560166 103.016572,18.6639004 103.274395,18.7966805 C103.532217,18.9294606 103.756773,19.1037344 103.94806,19.3195021 C104.139348,19.5352697 104.289052,19.7952974 104.397171,20.0995851 C104.50529,20.4038728 104.55935,20.7634855 104.55935,21.1784232 C104.55935,21.9197787 104.376379,22.5076072 104.010437,22.9419087 C103.644495,23.3762102 103.067859,23.6652835 102.28053,23.8091286 C102.834987,23.8478562 103.310435,23.9322268 103.706871,24.0622407 C104.103308,24.1922545 104.42628,24.3692946 104.675786,24.593361 C104.925291,24.8174274 105.108262,25.0912863 105.224698,25.4149378 C105.341134,25.7385892 105.399352,26.1161826 105.399352,26.5477178 Z M101.548647,21.6680498 C101.548647,21.5242047 101.526468,21.3872752 101.482112,21.2572614 C101.437755,21.1272476 101.357359,21.0124481 101.240923,20.9128631 C101.124487,20.813278 100.966466,20.7330567 100.766862,20.6721992 C100.567257,20.6113416 100.312207,20.5809129 100.001711,20.5809129 L95.4523888,20.5809129 L95.4523888,22.7219917 L100.001711,22.7219917 C100.312207,22.7219917 100.567257,22.6943292 100.766862,22.6390041 C100.966466,22.5836791 101.124487,22.5089903 101.240923,22.4149378 C101.357359,22.3208852 101.437755,22.208852 101.482112,22.0788382 C101.526468,21.9488243 101.548647,21.8118949 101.548647,21.6680498 Z M102.263896,26.1908714 C102.263896,25.9308437 102.21954,25.7219917 102.130827,25.5643154 C102.042114,25.406639 101.903499,25.2849239 101.714984,25.1991701 C101.526468,25.1134163 101.282507,25.0567082 100.9831,25.0290456 C100.683693,25.0013831 100.326068,24.9875519 99.9102253,24.9875519 L95.4523888,24.9875519 L95.4523888,27.4024896 L99.9102253,27.4024896 C100.326068,27.4024896 100.683693,27.3886584 100.9831,27.3609959 C101.282507,27.3333333 101.526468,27.275242 101.714984,27.186722 C101.903499,27.0982019 102.042114,26.9751037 102.130827,26.8174274 C102.21954,26.659751 102.263896,26.450899 102.263896,26.1908714 Z M122.207724,23.9834025 C122.207724,24.7136929 122.127328,25.362379 121.966536,25.9294606 C121.805743,26.4965422 121.579802,26.9903181 121.288712,27.4107884 C120.997621,27.8312586 120.648313,28.1881051 120.240787,28.4813278 C119.833261,28.7745505 119.379992,29.0096819 118.880981,29.186722 C118.381969,29.3637621 117.844146,29.4923928 117.26751,29.5726141 C116.690875,29.6528354 116.089288,29.6929461 115.462752,29.6929461 L108.210451,29.6929461 L108.210451,18.2904564 L115.446118,18.2904564 C116.072655,18.2904564 116.674241,18.3305671 117.250876,18.4107884 C117.827512,18.4910097 118.366722,18.6196404 118.868506,18.7966805 C119.370289,18.9737206 119.826331,19.2074689 120.236629,19.4979253 C120.646927,19.7883817 120.997621,20.1452282 121.288712,20.5684647 C121.579802,20.9917012 121.805743,21.4854772 121.966536,22.0497925 C122.127328,22.6141079 122.207724,23.2586445 122.207724,23.9834025 Z M119.097219,23.9834025 C119.097219,23.4356846 119.026526,22.9598893 118.885139,22.5560166 C118.743753,22.1521438 118.516425,21.8188105 118.203157,21.5560166 C117.889888,21.2932227 117.480976,21.0968188 116.97642,20.966805 C116.471864,20.8367911 115.856416,20.7717842 115.130077,20.7717842 L111.296005,20.7717842 L111.296005,27.2116183 L115.130077,27.2116183 C115.856416,27.2116183 116.471864,27.1466113 116.97642,27.0165975 C117.480976,26.8865837 117.889888,26.6874136 118.203157,26.4190871 C118.516425,26.1507607 118.743753,25.8146611 118.885139,25.4107884 C119.026526,25.0069156 119.097219,24.5311203 119.097219,23.9834025 Z M139.806198,24 C139.806198,24.9792531 139.626,25.8437068 139.265602,26.593361 C138.905205,27.3430152 138.38956,27.9695712 137.718667,28.473029 C137.047773,28.9764869 136.234107,29.3568465 135.277669,29.6141079 C134.32123,29.8713693 133.246969,30 132.054886,30 C130.862803,30 129.785769,29.8713693 128.823786,29.6141079 C127.861803,29.3568465 127.042592,28.9764869 126.366154,28.473029 C125.689716,27.9695712 125.168526,27.3430152 124.802585,26.593361 C124.436643,25.8437068 124.253672,24.9792531 124.253672,24 C124.253672,23.0207469 124.436643,22.1562932 124.802585,21.406639 C125.168526,20.6569848 125.689716,20.0304288 126.366154,19.526971 C127.042592,19.0235131 127.861803,18.6431535 128.823786,18.3858921 C129.785769,18.1286307 130.862803,18 132.054886,18 C133.246969,18 134.32123,18.1286307 135.277669,18.3858921 C136.234107,18.6431535 137.047773,19.0235131 137.718667,19.526971 C138.38956,20.0304288 138.905205,20.6569848 139.265602,21.406639 C139.626,22.1562932 139.806198,23.0207469 139.806198,24 Z M136.687376,24 C136.687376,23.5739972 136.619455,23.1493776 136.483613,22.7261411 C136.347771,22.3029046 136.106582,21.922545 135.760046,21.5850622 C135.413511,21.2475795 134.940836,20.9737206 134.342022,20.7634855 C133.743208,20.5532503 132.980829,20.4481328 132.054886,20.4481328 C131.433893,20.4481328 130.887753,20.4965422 130.416464,20.593361 C129.945176,20.6901798 129.53765,20.824343 129.193886,20.9958506 C128.850123,21.1673582 128.561805,21.3679115 128.328933,21.5975104 C128.096061,21.8271093 127.910318,22.0733057 127.771703,22.3360996 C127.633089,22.5988935 127.534673,22.8727524 127.476455,23.1576763 C127.418237,23.4426003 127.389128,23.7233748 127.389128,24 C127.389128,24.2821577 127.418237,24.5670816 127.476455,24.8547718 C127.534673,25.142462 127.633089,25.417704 127.771703,25.6804979 C127.910318,25.9432918 128.096061,26.1881051 128.328933,26.4149378 C128.561805,26.6417704 128.850123,26.8395574 129.193886,27.0082988 C129.53765,27.1770401 129.945176,27.3098202 130.416464,27.406639 C130.887753,27.5034578 131.433893,27.5518672 132.054886,27.5518672 C132.980829,27.5518672 133.743208,27.4467497 134.342022,27.2365145 C134.940836,27.0262794 135.413511,26.7524205 135.760046,26.4149378 C136.106582,26.077455 136.347771,25.6970954 136.483613,25.2738589 C136.619455,24.8506224 136.687376,24.4260028 136.687376,24 Z M149.977717,18 C151.097721,18 152.138714,18.0954357 153.100698,18.2863071 C154.062681,18.4771784 154.945654,18.7219917 155.749617,19.0207469 L155.749617,21.8091286 C155.433577,21.6320885 155.077338,21.4605809 154.680901,21.2946058 C154.284464,21.1286307 153.853373,20.9820194 153.387629,20.8547718 C152.921885,20.7275242 152.422874,20.6251729 151.890595,20.5477178 C151.358316,20.4702628 150.798314,20.4315353 150.210589,20.4315353 C149.478705,20.4315353 148.84108,20.4840941 148.297711,20.5892116 C147.754343,20.6943292 147.288599,20.835408 146.900479,21.0124481 C146.512359,21.1894882 146.193546,21.395574 145.94404,21.6307054 C145.694535,21.8658368 145.497702,22.1161826 145.353543,22.3817427 C145.209384,22.6473029 145.109582,22.9183956 145.054136,23.1950207 C144.998691,23.4716459 144.970968,23.7399723 144.970968,24 C144.970968,24.2268326 144.994532,24.473029 145.041661,24.7385892 C145.08879,25.0041494 145.177503,25.2697095 145.307801,25.5352697 C145.438098,25.8008299 145.619683,26.055325 145.852555,26.2987552 C146.085427,26.5421853 146.388992,26.757953 146.763251,26.9460581 C147.13751,27.1341632 147.588006,27.2849239 148.114741,27.3983402 C148.641475,27.5117566 149.268012,27.5684647 149.994351,27.5684647 C150.360292,27.5684647 150.679105,27.5573997 150.950789,27.5352697 C151.222474,27.5131397 151.470593,27.4827109 151.695148,27.4439834 C151.919704,27.4052559 152.130397,27.3582296 152.32723,27.3029046 C152.524062,27.2475795 152.727825,27.1894882 152.938519,27.1286307 L152.938519,25.7510373 L149.478705,25.7510373 L149.478705,23.253112 L156.024074,23.253112 L156.024074,29.0788382 C155.613775,29.2171508 155.154962,29.3430152 154.647633,29.4564315 C154.140305,29.5698479 153.616343,29.6666667 153.075747,29.746888 C152.535151,29.8271093 151.993169,29.8893499 151.449801,29.93361 C150.906433,29.97787 150.39356,30 149.911182,30 C149.162665,30 148.444643,29.9502075 147.757116,29.8506224 C147.069589,29.7510373 146.427804,29.5975104 145.831763,29.3900415 C145.235721,29.1825726 144.692353,28.9183956 144.201658,28.5975104 C143.710964,28.2766252 143.292348,27.8948824 142.945813,27.4522822 C142.599277,27.0096819 142.330365,26.5020747 142.139077,25.9294606 C141.94779,25.3568465 141.852146,24.7136929 141.852146,24 C141.852146,23.2918396 141.951948,22.6500692 142.151553,22.0746888 C142.351157,21.4993084 142.629772,20.9903181 142.987397,20.5477178 C143.345022,20.1051176 143.774726,19.7233748 144.27651,19.4024896 C144.778294,19.0816044 145.329979,18.8174274 145.931565,18.6099585 C146.533151,18.4024896 147.176322,18.2489627 147.861076,18.1493776 C148.545831,18.0497925 149.251378,18 149.977717,18 Z M159.3425,29.6929461 L159.3425,18.2904564 L170.911251,18.2904564 L170.911251,20.7219917 L162.511224,20.7219917 L162.511224,22.6058091 L170.478775,22.6058091 L170.478775,25.0373444 L162.511224,25.0373444 L162.511224,27.2614108 L171.027687,27.2614108 L171.027687,29.6929461 L159.3425,29.6929461 Z" id="形状结合" fill="#FFFFFF" fill-rule="nonzero"></path>
        </g>
    </g>
</svg>